<svg width="64" height="64" viewBox="0 0 64 64" fill="none" xmlns="http://www.w3.org/2000/svg">
<path d="M31.9999 0L41.5999 15.3723L59.7127 16L51.1999 32L59.7127 48L41.5999 48.6277L31.9999 64L22.3999 48.6277L4.28711 48L12.7999 32L4.28711 16L22.3999 15.3723L31.9999 0Z" fill="#CC112F"/>
<path d="M22.5669 15.6612L32 20.6801L41.433 15.6612L41.8031 26.3399L50.866 31.9997L41.8031 37.6595L41.433 48.3382L32 43.3193L22.5669 48.3382L22.1969 37.6595L13.1339 31.9997L22.1969 26.3399L22.5669 15.6612Z" fill="white"/>
<path d="M22.0905 26.2782L28.5674 26.0537L32.0003 20.5568L35.4331 26.0537L41.9101 26.2782L38.866 31.9996L41.9101 37.721L35.4331 37.9455L32.0003 43.4425L28.5674 37.9455L22.0905 37.721L25.1346 31.9996L22.0905 26.2782Z" fill="#E6A640"/>
<path d="M23.578 31.9998L27.6234 29.4735L27.7886 24.707L31.9991 26.9472L36.2096 24.707L36.3748 29.4735L40.4202 31.9998L36.3748 34.5262L36.2096 39.2927L31.9991 37.0525L27.7886 39.2927L27.6234 34.5262L23.578 31.9998Z" fill="white"/>
</svg>
